<?xml version="1.0" encoding="utf-8"?>
<!-- Generator: Adobe Illustrator 16.0.0, SVG Export Plug-In . SVG Version: 6.00 Build 0)  -->
<!DOCTYPE svg PUBLIC "-//W3C//DTD SVG 1.1//EN" "http://www.w3.org/Graphics/SVG/1.1/DTD/svg11.dtd">
<svg version="1.1" id="Layer_1" xmlns="http://www.w3.org/2000/svg" xmlns:xlink="http://www.w3.org/1999/xlink" x="0px" y="0px"
	 width="255.423px" height="166.72px" viewBox="0 0 255.423 166.72" enable-background="new 0 0 255.423 166.72"
	 xml:space="preserve">
<g>
	<g>
		<path fill="#0072BC" d="M215.189,64.704c15.242-2.268,29.058-7.723,30.85-12.195c1.797-4.477-9.105-6.273-24.35-4.007
			C221.689,48.501,252.544,49.827,215.189,64.704z"/>
		<path fill="#0072BC" d="M215.373,70.252c0,0,50.342,2.168-10.604,26.442c24.871-3.695,47.399-12.601,50.34-19.899
			C258.032,69.487,240.242,66.567,215.373,70.252z"/>
		<g>
			<g>
				<linearGradient id="SVGID_1_" gradientUnits="userSpaceOnUse" x1="70.4238" y1="128.0698" x2="170.5078" y2="27.9859">
					<stop  offset="0.191" style="stop-color:#0054A6"/>
					<stop  offset="0.5843" style="stop-color:#00AEEF"/>
					<stop  offset="0.8315" style="stop-color:#0054A6"/>
				</linearGradient>
				<path fill="url(#SVGID_1_)" d="M156.351,61.495C158.912,37.28,138.507,12.573,131.669,0
					c-8.505,75.057-64.392,112.969-71.04,117.225c-0.419,0.269-0.646,0.403-0.646,0.403c12.314,0.188,42.838-9.482,60.542-17.205
					c17.691-7.714,18.375,11.801,17.754,24.545c0,0,65.08-42.551,24.027-105.184C162.307,19.785,162.184,41.742,156.351,61.495z"/>
			</g>
			<path fill="#0072BC" d="M121.188,6.264c-20.125,32.538-49.61,86.26-92.521,86.767c-15.404-0.146-12.087-36.215-10.819-49.757
				c-1.769,3.551-3.893,7.992-6.04,13.002c-3.712,8.675-7.532,19.069-9.779,29.415c-1.429,6.595-2.225,13.18-1.987,19.287
				c0.061,2.462,0.165,20.26,19.836,18.396c5-0.486,10.972-1.677,17.629-4.235C106.756,88.984,119.333,13.64,121.188,6.264z"/>
			<path fill="#0072BC" d="M253.621,23.769c-31.869,1.439-115.943,21.886-43.339,101.459
				C173.601,50.401,253.621,23.769,253.621,23.769z"/>
		</g>
	</g>
	<g>
		<path fill="#0072BC" d="M9.99,137.733l5.053,21.999h0.299l5.058-21.999h3.422l-6.988,28.987h-3.276l-6.987-28.987H9.99z"/>
		<path fill="#0072BC" d="M27.501,166.72h-3.566l7.433-28.987h2.971l7.438,28.987h-3.571l-2.077-8.469h-6.547L27.501,166.72z
			 M33.003,145.611h-0.299l-2.382,9.815h5.058L33.003,145.611z"/>
		<path fill="#0072BC" d="M59.548,137.733v28.987h-4.16l-7.735-21.698h-0.15v21.698h-3.421v-28.987h4.163l7.732,21.709h0.15v-21.709
			H59.548z"/>
		<path fill="#0072BC" d="M86.148,137.733v28.987h-4.16l-7.741-21.698h-0.148v21.698h-3.416v-28.987h4.161l7.734,21.709h0.148
			v-21.709H86.148z"/>
		<path fill="#0072BC" d="M91.48,166.72h-3.571l7.434-28.987h2.969l7.439,28.987h-3.566l-2.082-8.469h-6.542L91.48,166.72z
			 M96.978,145.611h-0.296l-2.379,9.815h5.057L96.978,145.611z"/>
		<path fill="#0072BC" d="M123.258,137.733v28.987h-4.167l-7.723-21.698h-0.155v21.698h-3.416v-28.987h4.161l7.734,21.709h0.146
			v-21.709H123.258z"/>
		<path fill="#0072BC" d="M136.161,141.595c-0.692-0.694-1.489-1.047-2.379-1.047c-0.792,0-1.44,0.26-1.938,0.746
			c-2.173,2.184-3.266,6.046-3.266,11.605c0,4.854,0.792,8.075,2.375,9.659c0.798,0.797,1.585,1.19,2.382,1.19
			c0.995,0,1.885-0.394,2.675-1.19c1.192-1.181,1.787-3.17,1.787-5.942v-2.827h-4.607v-2.827h7.579v15.758h-2.526l-0.445-2.672
			c-1.387,1.78-3.023,2.672-4.907,2.672c-1.686,0-3.126-0.591-4.312-1.78c-2.283-2.277-3.422-6.295-3.422-12.04
			c0-6.149,1.243-10.467,3.718-12.941c1.489-1.489,3.126-2.226,4.907-2.226c1.883,0,3.374,0.538,4.461,1.635
			c1.688,1.688,2.526,4.163,2.526,7.436h-3.122C137.549,144.224,137.053,142.485,136.161,141.595z"/>
		<path fill="#0072BC" d="M170.201,139.513c1.479,1.48,2.226,3.272,2.226,5.354c0,1.884-0.538,3.374-1.636,4.461
			c-0.891,0.902-1.635,1.439-2.225,1.635c1.086,0.592,1.978,1.243,2.672,1.938c1.292,1.283,1.934,3.073,1.934,5.352
			c0,2.476-0.642,4.358-1.934,5.642c-1.887,1.896-4.061,2.827-6.546,2.827h-7.432v-28.987h7.732
			C167.271,137.733,169.011,138.322,170.201,139.513z M167.966,148.137c0.899-0.892,1.346-1.978,1.346-3.271
			c0-1.296-0.354-2.279-1.046-2.971c-0.89-0.902-1.781-1.348-2.671-1.348h-4.918v8.779h4.472
			C166.236,149.328,167.178,148.934,167.966,148.137z M160.677,152.153v11.74h3.427c1.687,0,3.127-0.589,4.306-1.779
			c0.995-0.983,1.491-2.278,1.491-3.862c0-1.78-0.549-3.221-1.635-4.317c-1.19-1.18-2.381-1.781-3.573-1.781H160.677z"/>
		<path fill="#0072BC" d="M177.157,166.72h-3.57l7.433-28.987h2.972l7.444,28.987h-3.573l-2.081-8.469h-6.542L177.157,166.72z
			 M182.655,145.611h-0.3l-2.371,9.815h5.053L182.655,145.611z"/>
		<path fill="#0072BC" d="M209.335,137.733v28.987h-4.163l-7.732-21.698h-0.146v21.698h-3.427v-28.987h4.161l7.745,21.709h0.145
			v-21.709H209.335z"/>
		<path fill="#0072BC" d="M227.439,152.153c0,6.245-1.098,10.457-3.27,12.643c-1.295,1.283-2.93,1.925-4.907,1.925
			c-2.081,0-3.768-0.642-5.063-1.925c-2.173-2.186-3.271-6.397-3.271-12.643c0-6.148,1.098-10.31,3.271-12.484
			c1.296-1.292,2.982-1.936,5.063-1.936c1.978,0,3.612,0.644,4.907,1.936C226.342,141.843,227.439,146.004,227.439,152.153z
			 M214.355,152.153c0,5.654,0.641,9.123,1.937,10.406c0.89,0.89,1.883,1.334,2.971,1.334c0.993,0,1.925-0.444,2.825-1.334
			c1.283-1.283,1.925-4.752,1.925-10.406c0-5.549-0.642-8.964-1.925-10.257c-0.9-0.902-1.832-1.348-2.825-1.348
			c-1.088,0-2.081,0.445-2.971,1.348C214.996,143.189,214.355,146.604,214.355,152.153z"/>
		<path fill="#0072BC" d="M231.199,166.72v-28.987h3.416v12.185l8.479-12.185h4.016l-7.889,11.439l8.479,17.548h-3.862L236.996,152
			l-2.381,3.271v11.449H231.199z"/>
		<g>
			<rect x="144.507" y="152.609" fill="#0072BC" width="8.944" height="2.651"/>
		</g>
	</g>
</g>
<g>
</g>
<g>
</g>
<g>
</g>
<g>
</g>
<g>
</g>
<g>
</g>
</svg>
